<svg xmlns="http://www.w3.org/2000/svg" xmlns:xlink="http://www.w3.org/1999/xlink" contentStyleType="text/css" data-diagram-type="DESCRIPTION" height="772px" preserveAspectRatio="none" style="width:3757px;height:772px;background:#FFFFFF;" version="1.1" viewBox="0 0 3757 772" width="3757px" zoomAndPan="magnify"><rect width="100%" height="100%" fill="#FFFFFF"/><?plantuml 1.2026.6?><defs/><g><g class="title" data-source-line="1"><text fill="#000000" font-family="sans-serif" font-size="14" font-weight="700" lengthAdjust="spacing" textLength="409.7734" x="1670.4583" y="22.9951">AI Sandbox - Image and Software Supply Chain DFD</text></g><!--cluster TB1--><g class="cluster" data-qualified-name="TB1" data-source-line="34" id="ent0007"><rect fill="none" height="129" rx="2.5" ry="2.5" style="stroke:#000000;stroke-width:1;stroke-dasharray:7,7;" width="1299.78" x="7" y="488.8628"/><text fill="#000000" font-family="sans-serif" font-size="14" font-weight="700" lengthAdjust="spacing" textLength="164.6436" x="574.5682" y="503.8579">TB1  Maintainer host</text></g><!--cluster TB2--><g class="cluster" data-qualified-name="TB2" data-source-line="40" id="ent0011"><rect fill="none" height="279" rx="2.5" ry="2.5" style="stroke:#000000;stroke-width:1;stroke-dasharray:7,7;" width="2652.55" x="1091.14" y="110.8628"/><text fill="#000000" font-family="sans-serif" font-size="14" font-weight="700" lengthAdjust="spacing" textLength="137.5391" x="2348.6455" y="125.8579">TB2  Sandbox VM</text></g><!--entity P1--><g class="entity" data-qualified-name="TB1.P1" data-source-line="35" id="ent0008"><rect fill="#FFFFFF" height="68.8906" rx="12.5" ry="12.5" style="stroke:#000000;stroke-width:0.5;" width="161.2852" x="574.86" y="533.4228"/><text fill="#000000" font-family="sans-serif" font-size="14" lengthAdjust="spacing" textLength="17.3496" x="646.8278" y="556.4179">P1</text><text fill="#000000" font-family="sans-serif" font-size="14" lengthAdjust="spacing" textLength="135.2285" x="587.8883" y="572.7148">Git review, signing,</text><text fill="#000000" font-family="sans-serif" font-size="14" lengthAdjust="spacing" textLength="141.2852" x="584.86" y="589.0117">and publishing tools</text></g><!--entity D1--><g class="entity" data-qualified-name="TB1.D1" data-source-line="36" id="ent0009"><path d="M1121.27,537.0628 C1121.27,527.0628 1206.0278,527.0628 1206.0278,527.0628 C1206.0278,527.0628 1290.7856,527.0628 1290.7856,537.0628 L1290.7856,578.6565 C1290.7856,588.6565 1206.0278,588.6565 1206.0278,588.6565 C1206.0278,588.6565 1121.27,588.6565 1121.27,578.6565 L1121.27,537.0628" fill="#FFFFFF" style="stroke:#000000;stroke-width:0.5;"/><path d="M1121.27,537.0628 C1121.27,547.0628 1206.0278,547.0628 1206.0278,547.0628 C1206.0278,547.0628 1290.7856,547.0628 1290.7856,537.0628" fill="none" style="stroke:#000000;stroke-width:0.5;"/><text fill="#000000" font-family="sans-serif" font-size="14" lengthAdjust="spacing" textLength="19.6875" x="1196.1841" y="564.0579">D1</text><text fill="#000000" font-family="sans-serif" font-size="14" lengthAdjust="spacing" textLength="149.5156" x="1131.27" y="580.3548">Host repository clone</text></g><!--entity D2--><g class="entity" data-qualified-name="TB1.D2" data-source-line="37" id="ent0010"><path d="M23,533.9228 C23,523.9228 113.6675,523.9228 113.6675,523.9228 C113.6675,523.9228 204.335,523.9228 204.335,533.9228 L204.335,591.8134 C204.335,601.8134 113.6675,601.8134 113.6675,601.8134 C113.6675,601.8134 23,601.8134 23,591.8134 L23,533.9228" fill="#FFFFFF" style="stroke:#000000;stroke-width:0.5;"/><path d="M23,533.9228 C23,543.9228 113.6675,543.9228 113.6675,543.9228 C113.6675,543.9228 204.335,543.9228 204.335,533.9228" fill="none" style="stroke:#000000;stroke-width:0.5;"/><text fill="#000000" font-family="sans-serif" font-size="14" lengthAdjust="spacing" textLength="19.6875" x="103.8237" y="560.9179">D2</text><text fill="#000000" font-family="sans-serif" font-size="14" lengthAdjust="spacing" textLength="161.335" x="33" y="577.2148">GitHub credentials and</text><text fill="#000000" font-family="sans-serif" font-size="14" lengthAdjust="spacing" textLength="80.0488" x="73.6431" y="593.5117">signing key</text></g><!--entity P2--><g class="entity" data-qualified-name="TB2.P2" data-source-line="41" id="ent0012"><rect fill="#FFFFFF" height="52.5938" rx="12.5" ry="12.5" style="stroke:#000000;stroke-width:0.5;" width="197.7617" x="1107.14" y="244.5628"/><text fill="#000000" font-family="sans-serif" font-size="14" lengthAdjust="spacing" textLength="17.3496" x="1197.3461" y="267.5579">P2</text><text fill="#000000" font-family="sans-serif" font-size="14" lengthAdjust="spacing" textLength="177.7617" x="1117.14" y="283.8548">Nix evaluator and builder</text></g><!--entity P3--><g class="entity" data-qualified-name="TB2.P3" data-source-line="42" id="ent0013"><rect fill="#FFFFFF" height="52.5938" rx="12.5" ry="12.5" style="stroke:#000000;stroke-width:0.5;" width="182.2441" x="2913.15" y="217.5628"/><text fill="#000000" font-family="sans-serif" font-size="14" lengthAdjust="spacing" textLength="17.3496" x="2995.5973" y="240.5579">P3</text><text fill="#000000" font-family="sans-serif" font-size="14" lengthAdjust="spacing" textLength="162.2441" x="2923.15" y="256.8548">First-boot nixos-rebuild</text></g><!--entity P4--><g class="entity" data-qualified-name="TB2.P4" data-source-line="43" id="ent0014"><rect fill="#FFFFFF" height="68.8906" rx="12.5" ry="12.5" style="stroke:#000000;stroke-width:0.5;" width="215.8018" x="2896.37" y="305.4228"/><text fill="#000000" font-family="sans-serif" font-size="14" lengthAdjust="spacing" textLength="17.3496" x="2995.5961" y="328.4179">P4</text><text fill="#000000" font-family="sans-serif" font-size="14" lengthAdjust="spacing" textLength="195.8018" x="2906.37" y="344.7148">Runtime package launchers</text><text fill="#000000" font-family="sans-serif" font-size="14" lengthAdjust="spacing" textLength="169.8662" x="2919.3378" y="361.0117">(npx and installed tools)</text></g><!--entity D3--><g class="entity" data-qualified-name="TB2.D3" data-source-line="44" id="ent0015"><path d="M1736.03,305.9228 C1736.03,295.9228 1826.8718,295.9228 1826.8718,295.9228 C1826.8718,295.9228 1917.7136,295.9228 1917.7136,305.9228 L1917.7136,363.8134 C1917.7136,373.8134 1826.8718,373.8134 1826.8718,373.8134 C1826.8718,373.8134 1736.03,373.8134 1736.03,363.8134 L1736.03,305.9228" fill="#FFFFFF" style="stroke:#000000;stroke-width:0.5;"/><path d="M1736.03,305.9228 C1736.03,315.9228 1826.8718,315.9228 1826.8718,315.9228 C1826.8718,315.9228 1917.7136,315.9228 1917.7136,305.9228" fill="none" style="stroke:#000000;stroke-width:0.5;"/><text fill="#000000" font-family="sans-serif" font-size="14" lengthAdjust="spacing" textLength="19.6875" x="1817.028" y="332.9179">D3</text><text fill="#000000" font-family="sans-serif" font-size="14" lengthAdjust="spacing" textLength="139.2959" x="1757.2238" y="349.2148">VM repository clone</text><text fill="#000000" font-family="sans-serif" font-size="14" lengthAdjust="spacing" textLength="161.6836" x="1746.03" y="365.5117">flake.nix and flake.lock</text></g><!--entity D4--><g class="entity" data-qualified-name="TB2.D4" data-source-line="45" id="ent0016"><path d="M3495.17,223.0628 C3495.17,213.0628 3611.4312,213.0628 3611.4312,213.0628 C3611.4312,213.0628 3727.6925,213.0628 3727.6925,223.0628 L3727.6925,264.6565 C3727.6925,274.6565 3611.4312,274.6565 3611.4312,274.6565 C3611.4312,274.6565 3495.17,274.6565 3495.17,264.6565 L3495.17,223.0628" fill="#FFFFFF" style="stroke:#000000;stroke-width:0.5;"/><path d="M3495.17,223.0628 C3495.17,233.0628 3611.4312,233.0628 3611.4312,233.0628 C3611.4312,233.0628 3727.6925,233.0628 3727.6925,223.0628" fill="none" style="stroke:#000000;stroke-width:0.5;"/><text fill="#000000" font-family="sans-serif" font-size="14" lengthAdjust="spacing" textLength="19.6875" x="3601.5875" y="250.0579">D4</text><text fill="#000000" font-family="sans-serif" font-size="14" lengthAdjust="spacing" textLength="212.5225" x="3505.17" y="266.3548">Nix store and installed system</text></g><!--entity D5--><g class="entity" data-qualified-name="TB2.D5" data-source-line="46" id="ent0017"><path d="M1726.76,155.9228 C1726.76,145.9228 1826.8679,145.9228 1826.8679,145.9228 C1826.8679,145.9228 1926.9758,145.9228 1926.9758,155.9228 L1926.9758,213.8134 C1926.9758,223.8134 1826.8679,223.8134 1826.8679,223.8134 C1826.8679,223.8134 1726.76,223.8134 1726.76,213.8134 L1726.76,155.9228" fill="#FFFFFF" style="stroke:#000000;stroke-width:0.5;"/><path d="M1726.76,155.9228 C1726.76,165.9228 1826.8679,165.9228 1826.8679,165.9228 C1826.8679,165.9228 1926.9758,165.9228 1926.9758,155.9228" fill="none" style="stroke:#000000;stroke-width:0.5;"/><text fill="#000000" font-family="sans-serif" font-size="14" lengthAdjust="spacing" textLength="19.6875" x="1817.0242" y="182.9179">D5</text><text fill="#000000" font-family="sans-serif" font-size="14" lengthAdjust="spacing" textLength="129.7598" x="1761.988" y="199.2148">Built qcow2 image</text><text fill="#000000" font-family="sans-serif" font-size="14" lengthAdjust="spacing" textLength="180.2158" x="1736.76" y="215.5117">seed or private full image</text></g><!--entity D6--><g class="entity" data-qualified-name="TB2.D6" data-source-line="47" id="ent0018"><path d="M2291.53,261.9228 C2291.53,251.9228 2377.3713,251.9228 2377.3713,251.9228 C2377.3713,251.9228 2463.2126,251.9228 2463.2126,261.9228 L2463.2126,319.8134 C2463.2126,329.8134 2377.3713,329.8134 2377.3713,329.8134 C2377.3713,329.8134 2291.53,329.8134 2291.53,319.8134 L2291.53,261.9228" fill="#FFFFFF" style="stroke:#000000;stroke-width:0.5;"/><path d="M2291.53,261.9228 C2291.53,271.9228 2377.3713,271.9228 2377.3713,271.9228 C2377.3713,271.9228 2463.2126,271.9228 2463.2126,261.9228" fill="none" style="stroke:#000000;stroke-width:0.5;"/><text fill="#000000" font-family="sans-serif" font-size="14" lengthAdjust="spacing" textLength="19.6875" x="2367.5276" y="288.9179">D6</text><text fill="#000000" font-family="sans-serif" font-size="14" lengthAdjust="spacing" textLength="151.6826" x="2301.53" y="305.2148">Embedded seed flake</text><text fill="#000000" font-family="sans-serif" font-size="14" lengthAdjust="spacing" textLength="68.1406" x="2343.301" y="321.5117">/etc/nixos</text></g><!--entity E1--><g class="entity" data-qualified-name="E1" data-source-line="27" id="ent0001"><rect fill="#FFFFFF" height="52.5938" rx="2.5" ry="2.5" style="stroke:#000000;stroke-width:0.5;" width="149.083" x="39.13" y="636.5628"/><text fill="#000000" font-family="sans-serif" font-size="14" lengthAdjust="spacing" textLength="17.7529" x="104.795" y="659.5579">E1</text><text fill="#000000" font-family="sans-serif" font-size="14" lengthAdjust="spacing" textLength="129.083" x="49.13" y="675.8548">Project maintainer</text></g><!--entity E2--><g class="entity" data-qualified-name="E2" data-source-line="28" id="ent0002"><rect fill="#FFFFFF" height="52.5938" rx="2.5" ry="2.5" style="stroke:#000000;stroke-width:0.5;" width="230.6904" x="1090.68" y="633.5628"/><text fill="#000000" font-family="sans-serif" font-size="14" lengthAdjust="spacing" textLength="17.7529" x="1197.1488" y="656.5579">E2</text><text fill="#000000" font-family="sans-serif" font-size="14" lengthAdjust="spacing" textLength="210.6904" x="1100.68" y="672.8548">GitHub repository and Actions</text></g><!--entity E3--><g class="entity" data-qualified-name="E3" data-source-line="29" id="ent0003"><rect fill="#FFFFFF" height="68.8906" rx="2.5" ry="2.5" style="stroke:#000000;stroke-width:0.5;" width="189.4219" x="1732.16" y="530.4228"/><text fill="#000000" font-family="sans-serif" font-size="14" lengthAdjust="spacing" textLength="17.7529" x="1817.9945" y="553.4179">E3</text><text fill="#000000" font-family="sans-serif" font-size="14" lengthAdjust="spacing" textLength="159.7764" x="1746.9828" y="569.7148">GitHub-hosted runners</text><text fill="#000000" font-family="sans-serif" font-size="14" lengthAdjust="spacing" textLength="169.4219" x="1742.16" y="586.0117">Ubuntu x86_64 / ARM64</text></g><!--entity E4--><g class="entity" data-qualified-name="E4" data-source-line="30" id="ent0004"><rect fill="#FFFFFF" height="68.8906" rx="2.5" ry="2.5" style="stroke:#000000;stroke-width:0.5;" width="180.3438" x="565.33" y="236.4228"/><text fill="#000000" font-family="sans-serif" font-size="14" lengthAdjust="spacing" textLength="17.7529" x="646.6254" y="259.4179">E4</text><text fill="#000000" font-family="sans-serif" font-size="14" lengthAdjust="spacing" textLength="155.3604" x="577.8217" y="275.7148">Nix binary caches and</text><text fill="#000000" font-family="sans-serif" font-size="14" lengthAdjust="spacing" textLength="160.3438" x="575.33" y="292.0117">upstream source hosts</text></g><!--entity E5--><g class="entity" data-qualified-name="E5" data-source-line="31" id="ent0005"><rect fill="#FFFFFF" height="68.8906" rx="2.5" ry="2.5" style="stroke:#000000;stroke-width:0.5;" width="141.3994" x="2306.67" y="451.4228"/><text fill="#000000" font-family="sans-serif" font-size="14" lengthAdjust="spacing" textLength="17.7529" x="2368.4932" y="474.4179">E5</text><text fill="#000000" font-family="sans-serif" font-size="14" lengthAdjust="spacing" textLength="120.6064" x="2317.0665" y="490.7148">npm registry and</text><text fill="#000000" font-family="sans-serif" font-size="14" lengthAdjust="spacing" textLength="121.3994" x="2316.67" y="507.0117">software vendors</text></g><!--entity E6--><g class="entity" data-qualified-name="E6" data-source-line="32" id="ent0006"><rect fill="#FFFFFF" height="52.5938" rx="2.5" ry="2.5" style="stroke:#000000;stroke-width:0.5;" width="115.9492" x="1768.89" y="658.5628"/><text fill="#000000" font-family="sans-serif" font-size="14" lengthAdjust="spacing" textLength="17.7529" x="1817.9881" y="681.5579">E6</text><text fill="#000000" font-family="sans-serif" font-size="14" lengthAdjust="spacing" textLength="95.9492" x="1778.89" y="697.8548">Sandbox user</text></g><!--link E1 to P1--><g class="link" data-entity-1="ent0001" data-entity-2="ent0008" data-link-type="dependency" data-source-line="50" id="lnk19"><path d="M193.4364,650.328 C277.5364,636.788 414.07,614.3028 535.33,591.8628 C547.99,589.5228 556.4857,587.9061 569.5357,585.3161" fill="none" id="E1-P1" style="stroke:#000000;stroke-width:1;"/><polygon fill="#000000" points="188.5,651.1228,198.0214,653.6414,193.4364,650.328,196.7498,645.7431,188.5,651.1228" style="stroke:#000000;stroke-width:1;stroke-linejoin:miter;stroke-miterlimit:10;"/><polygon fill="#000000" points="574.44,584.3428,564.8335,582.1714,569.5357,585.3161,566.3909,590.0183,574.44,584.3428" style="stroke:#000000;stroke-width:1;stroke-linejoin:miter;stroke-miterlimit:10;"/><text fill="#000000" font-family="sans-serif" font-size="13" lengthAdjust="spacing" textLength="299.6919" x="235.33" y="587.9297">F1  Review and publication commands/results</text></g><!--link P1 to D1--><g class="link" data-entity-1="ent0008" data-entity-2="ent0009" data-link-type="dependency" data-source-line="51" id="lnk20"><path d="M741.5592,566.3118 C844.2892,564.4418 1011.7008,561.3837 1116.2108,559.4837" fill="none" id="P1-D1" style="stroke:#000000;stroke-width:1;"/><polygon fill="#000000" points="736.56,566.4028,745.6313,570.2383,741.5592,566.3118,745.4857,562.2397,736.56,566.4028" style="stroke:#000000;stroke-width:1;stroke-linejoin:miter;stroke-miterlimit:10;"/><polygon fill="#000000" points="1121.21,559.3928,1112.1388,555.557,1116.2108,559.4837,1112.2842,563.5557,1121.21,559.3928" style="stroke:#000000;stroke-width:1;stroke-linejoin:miter;stroke-miterlimit:10;"/><text fill="#000000" font-family="sans-serif" font-size="13" lengthAdjust="spacing" textLength="263.5864" x="786.68" y="556.6097">F2  Source changes and signed commits</text></g><!--link D2 to P1--><g class="link" data-entity-1="ent0010" data-entity-2="ent0008" data-link-type="dependency" data-source-line="52" id="lnk21"><path d="M204.72,563.6928 C308.07,564.6528 470.9702,566.1667 569.7702,567.0767" fill="none" id="D2-to-P1" style="stroke:#000000;stroke-width:1;"/><polygon fill="#000000" points="574.77,567.1228,565.8072,563.0401,569.7702,567.0767,565.7335,571.0397,574.77,567.1228" style="stroke:#000000;stroke-width:1;stroke-linejoin:miter;stroke-miterlimit:10;"/><text fill="#000000" font-family="sans-serif" font-size="13" lengthAdjust="spacing" textLength="257.5371" x="256.33" y="560.1397">F3  Authentication and signing material</text></g><!--link P1 to E2--><g class="link" data-entity-1="ent0008" data-entity-2="ent0002" data-link-type="dependency" data-source-line="53" id="lnk22"><path d="M741.2028,596.9774 C754.2228,600.8474 762.85,603.0328 775.68,605.8628 C881.14,629.1028 998.5607,642.8181 1085.6207,650.7681" fill="none" id="P1-E2" style="stroke:#000000;stroke-width:1;"/><polygon fill="#000000" points="736.41,595.5528,743.8973,601.9512,741.2028,596.9774,746.1766,594.2828,736.41,595.5528" style="stroke:#000000;stroke-width:1;stroke-linejoin:miter;stroke-miterlimit:10;"/><polygon fill="#000000" points="1090.6,651.2228,1082.001,646.4209,1085.6207,650.7681,1081.2735,654.3878,1090.6,651.2228" style="stroke:#000000;stroke-width:1;stroke-linejoin:miter;stroke-miterlimit:10;"/><text fill="#000000" font-family="sans-serif" font-size="13" lengthAdjust="spacing" textLength="283.7339" x="776.68" y="586.9297">F4  Signed Git commits and repository data</text><text fill="#000000" font-family="sans-serif" font-size="13" lengthAdjust="spacing" textLength="89.5908" x="873.7515" y="602.0625">SSH or HTTPS</text></g><!--link E2 to E3--><g class="link" data-entity-1="ent0002" data-entity-2="ent0003" data-link-type="dependency" data-source-line="55" id="lnk23"><path d="M1282.72,633.0828 C1295.69,628.2028 1308.97,623.0228 1321.37,617.8628 C1334.95,612.2128 1337.15,607.6328 1351.37,603.8628 C1420.78,585.4528 1609.5553,574.2931 1726.8953,568.8831" fill="none" id="E2-to-E3" style="stroke:#000000;stroke-width:1;"/><polygon fill="#000000" points="1731.89,568.6528,1722.7153,565.0715,1726.8953,568.8831,1723.0838,573.0631,1731.89,568.6528" style="stroke:#000000;stroke-width:1;stroke-linejoin:miter;stroke-miterlimit:10;"/><text fill="#000000" font-family="sans-serif" font-size="13" lengthAdjust="spacing" textLength="300.8154" x="1352.37" y="553.7997">F5  Pinned workflow actions, source checkout,</text><text fill="#000000" font-family="sans-serif" font-size="13" lengthAdjust="spacing" textLength="140.8164" x="1432.3695" y="568.9325">and build instructions</text></g><!--link E3 to E2--><g class="link" data-entity-1="ent0003" data-entity-2="ent0002" data-link-type="dependency" data-source-line="57" id="lnk25"><path d="M1765.3,599.7328 C1733.15,616.3728 1692.31,634.6328 1653.37,643.8628 C1542.83,670.0528 1417.6362,671.7074 1326.4762,668.1574" fill="none" id="E3-to-E2" style="stroke:#000000;stroke-width:1;"/><polygon fill="#000000" points="1321.48,667.9628,1330.3175,672.31,1326.4762,668.1574,1330.6288,664.316,1321.48,667.9628" style="stroke:#000000;stroke-width:1;stroke-linejoin:miter;stroke-miterlimit:10;"/><text fill="#000000" font-family="sans-serif" font-size="13" lengthAdjust="spacing" textLength="214.0938" x="1395.37" y="624.9297">F7  Compressed aarch64/x86_64</text><text fill="#000000" font-family="sans-serif" font-size="13" lengthAdjust="spacing" textLength="133.9165" x="1435.4586" y="640.0625">seed-image artifacts</text></g><!--link E4 to E3--><g class="link" data-entity-1="ent0004" data-entity-2="ent0003" data-link-type="dependency" data-source-line="56" id="lnk24"><path d="M734.46,305.7628 C818.62,341.6828 957.52,395.9628 1083.14,421.8628 C1331.91,473.1628 1411.22,383.1828 1653.37,459.8628 C1701,474.9428 1745.0172,502.817 1778.2672,527.187" fill="none" id="E4-to-E3" style="stroke:#000000;stroke-width:1;"/><polygon fill="#000000" points="1782.3,530.1428,1777.4056,521.5962,1778.2672,527.187,1772.6764,528.0486,1782.3,530.1428" style="stroke:#000000;stroke-width:1;stroke-linejoin:miter;stroke-miterlimit:10;"/><text fill="#000000" font-family="sans-serif" font-size="13" lengthAdjust="spacing" textLength="202.2681" x="1105.02" y="402.9297">F6  Locked Nix inputs, sources,</text><text fill="#000000" font-family="sans-serif" font-size="13" lengthAdjust="spacing" textLength="200.4844" x="1105.9118" y="418.0625">and binary substitutes - HTTPS</text></g><!--link E2 to E6--><g class="link" data-entity-1="ent0002" data-entity-2="ent0006" data-link-type="dependency" data-source-line="58" id="lnk26"><path d="M1266.51,686.5328 C1292.08,696.6028 1322.64,706.8428 1351.37,711.8628 C1500.11,737.8428 1673.751,713.779 1763.491,697.429" fill="none" id="E2-to-E6" style="stroke:#000000;stroke-width:1;"/><polygon fill="#000000" points="1768.41,696.5328,1758.8388,694.2108,1763.491,697.429,1760.2727,702.0812,1768.41,696.5328" style="stroke:#000000;stroke-width:1;stroke-linejoin:miter;stroke-miterlimit:10;"/><text fill="#000000" font-family="sans-serif" font-size="13" lengthAdjust="spacing" textLength="285.0986" x="1359.87" y="692.9297">F8  Published seed-image artifact download</text><text fill="#000000" font-family="sans-serif" font-size="13" lengthAdjust="spacing" textLength="41.7485" x="1481.545" y="708.0625">HTTPS</text></g><!--link E6 to P3--><g class="link" data-entity-1="ent0006" data-entity-2="ent0013" data-link-type="dependency" data-source-line="60" id="lnk27"><path d="M1885.05,659.9628 C1911.49,647.8528 1943.02,632.5428 1970.37,616.8628 C2096.14,544.7728 2107.64,492.1628 2240.37,433.8628 C2305.81,405.1128 2797.39,304.5728 2866.37,285.8628 C2883.52,281.2128 2896.9949,277.3329 2914.3849,272.0629" fill="none" id="E6-to-P3" style="stroke:#000000;stroke-width:1;"/><polygon fill="#000000" points="2919.17,270.6128,2909.3967,269.3949,2914.3849,272.0629,2911.7169,277.0511,2919.17,270.6128" style="stroke:#000000;stroke-width:1;stroke-linejoin:miter;stroke-miterlimit:10;"/><text fill="#000000" font-family="sans-serif" font-size="13" lengthAdjust="spacing" textLength="272.3145" x="2241.37" y="362.5397">F9  First-boot password and console input</text></g><!--link D6 to P3--><g class="link" data-entity-1="ent0018" data-entity-2="ent0013" data-link-type="dependency" data-source-line="61" id="lnk28"><path d="M2463.62,284.4528 C2581.27,275.6028 2787.4841,260.0982 2907.8241,251.0382" fill="none" id="D6-to-P3" style="stroke:#000000;stroke-width:1;"/><polygon fill="#000000" points="2912.81,250.6628,2903.5351,247.3497,2907.8241,251.0382,2904.1357,255.3272,2912.81,250.6628" style="stroke:#000000;stroke-width:1;stroke-linejoin:miter;stroke-miterlimit:10;"/><text fill="#000000" font-family="sans-serif" font-size="13" lengthAdjust="spacing" textLength="320.5947" x="2545.37" y="251.2897">F10  Embedded flake and selected system target</text></g><!--link E4 to P3--><g class="link" data-entity-1="ent0004" data-entity-2="ent0013" data-link-type="dependency" data-source-line="62" id="lnk29"><path d="M713.38,236.0028 C810.46,179.9128 1016.03,75.8628 1205.02,75.8628 C1205.02,75.8628 1205.02,75.8628 2378.37,75.8628 C2593.5,75.8628 2831.8759,167.8762 2940.6359,215.2462" fill="none" id="E4-to-P3" style="stroke:#000000;stroke-width:1;"/><polygon fill="#000000" points="2945.22,217.2428,2938.5659,209.9817,2940.6359,215.2462,2935.3714,217.3162,2945.22,217.2428" style="stroke:#000000;stroke-width:1;stroke-linejoin:miter;stroke-miterlimit:10;"/><text fill="#000000" font-family="sans-serif" font-size="13" lengthAdjust="spacing" textLength="285.1558" x="1684.37" y="56.9297">F11  Post-seed packages and dependencies</text><text fill="#000000" font-family="sans-serif" font-size="13" lengthAdjust="spacing" textLength="41.7485" x="1806.0736" y="72.0625">HTTPS</text></g><!--link P3 to D4--><g class="link" data-entity-1="ent0013" data-entity-2="ent0016" data-link-type="dependency" data-source-line="63" id="lnk30"><path d="M3095.87,243.8628 C3202.21,243.8628 3373.74,243.8628 3489.85,243.8628" fill="none" id="P3-to-D4" style="stroke:#000000;stroke-width:1;"/><polygon fill="#000000" points="3494.85,243.8628,3485.85,239.8628,3489.85,243.8628,3485.85,247.8628,3494.85,243.8628" style="stroke:#000000;stroke-width:1;stroke-linejoin:miter;stroke-miterlimit:10;"/><text fill="#000000" font-family="sans-serif" font-size="13" lengthAdjust="spacing" textLength="241.1221" x="3183.17" y="224.9297">F12  Installed GNOME, IDEA, AI tools,</text><text fill="#000000" font-family="sans-serif" font-size="13" lengthAdjust="spacing" textLength="201.5571" x="3202.9525" y="240.0625">and development environment</text></g><!--link D3 to P2--><g class="link" data-entity-1="ent0015" data-entity-2="ent0012" data-link-type="dependency" data-source-line="65" id="lnk31"><path d="M1735.81,325.5528 C1621.08,313.6828 1428.4935,293.7672 1310.0535,281.5172" fill="none" id="D3-to-P2" style="stroke:#000000;stroke-width:1;"/><polygon fill="#000000" points="1305.08,281.0028,1313.6207,285.9075,1310.0535,281.5172,1314.4438,277.9499,1305.08,281.0028" style="stroke:#000000;stroke-width:1;stroke-linejoin:miter;stroke-miterlimit:10;"/><text fill="#000000" font-family="sans-serif" font-size="13" lengthAdjust="spacing" textLength="179.8291" x="1412.87" y="282.3997">F13  Locked build definition</text></g><!--link P2 to D3--><g class="link" data-entity-1="ent0012" data-entity-2="ent0015" data-link-type="dependency" data-source-line="72" id="lnk37"><path d="M1249.03,297.5328 C1276.87,313.5828 1314.86,332.4728 1351.37,340.8628 C1482.45,370.9728 1634.3466,360.8464 1730.7966,349.1164" fill="none" id="P2-to-D3" style="stroke:#000000;stroke-width:1;"/><polygon fill="#000000" points="1735.76,348.5128,1726.3429,345.6286,1730.7966,349.1164,1727.3087,353.5701,1735.76,348.5128" style="stroke:#000000;stroke-width:1;stroke-linejoin:miter;stroke-miterlimit:10;"/><text fill="#000000" font-family="sans-serif" font-size="13" lengthAdjust="spacing" textLength="202.4204" x="1401.37" y="336.9297">F19  Explicit flake.lock updates</text></g><!--link E4 to P2--><g class="link" data-entity-1="ent0004" data-entity-2="ent0012" data-link-type="dependency" data-source-line="66" id="lnk32"><path d="M746.16,270.8628 C845.34,270.8628 999.62,270.8628 1102.03,270.8628" fill="none" id="E4-to-P2" style="stroke:#000000;stroke-width:1;"/><polygon fill="#000000" points="1107.03,270.8628,1098.03,266.8628,1102.03,270.8628,1098.03,274.8628,1107.03,270.8628" style="stroke:#000000;stroke-width:1;stroke-linejoin:miter;stroke-miterlimit:10;"/><text fill="#000000" font-family="sans-serif" font-size="13" lengthAdjust="spacing" textLength="264.9575" x="785.9571" y="251.9297">F14  Nix inputs, sources, and substitutes</text><text fill="#000000" font-family="sans-serif" font-size="13" lengthAdjust="spacing" textLength="270.5117" x="783.18" y="267.0625">HTTPS with NAR hashes where applicable</text></g><!--link P2 to D5--><g class="link" data-entity-1="ent0012" data-entity-2="ent0017" data-link-type="dependency" data-source-line="67" id="lnk33"><path d="M1305.23,256.4628 C1320.67,254.2328 1336.45,251.9728 1351.37,249.8628 C1480.83,231.5828 1625.325,211.9025 1721.365,198.9225" fill="none" id="P2-to-D5" style="stroke:#000000;stroke-width:1;"/><polygon fill="#000000" points="1726.32,198.2528,1716.8654,195.4942,1721.365,198.9225,1717.9368,203.4222,1726.32,198.2528" style="stroke:#000000;stroke-width:1;stroke-linejoin:miter;stroke-miterlimit:10;"/><text fill="#000000" font-family="sans-serif" font-size="13" lengthAdjust="spacing" textLength="259.5176" x="1372.87" y="205.3397">F15  Generated and compressed qcow2</text></g><!--link P2 to D4--><g class="link" data-entity-1="ent0012" data-entity-2="ent0016" data-link-type="dependency" data-source-line="68" id="lnk34"><path d="M1305.24,265.8928 C1320.67,265.1728 1336.45,264.4728 1351.37,263.8628 C1485.55,258.3928 1519.17,258.8328 1653.37,253.8628 C1794.28,248.6428 1829.49,246.8728 1970.37,240.8628 C2381.95,223.3128 2484.51,208.9728 2896.37,199.8628 C2992.26,197.7428 3016.26,199.3228 3112.17,199.8628 C3269.07,200.7528 3309.81,181.9628 3465.17,203.8628 C3479.81,205.9228 3490.1987,207.8532 3505.0787,211.4332" fill="none" id="P2-to-D4" style="stroke:#000000;stroke-width:1;"/><polygon fill="#000000" points="3509.94,212.6028,3502.1254,206.6085,3505.0787,211.4332,3500.254,214.3866,3509.94,212.6028" style="stroke:#000000;stroke-width:1;stroke-linejoin:miter;stroke-miterlimit:10;"/><text fill="#000000" font-family="sans-serif" font-size="13" lengthAdjust="spacing" textLength="250.2119" x="2252.37" y="209.2397">F16  Build outputs and Nix store paths</text></g><!--link D3 to D6--><g class="link" data-entity-1="ent0015" data-entity-2="ent0018" data-link-type="dependency" data-source-line="69" id="lnk35"><path d="M1918.14,327.6228 C2021.68,319.3128 2185.186,306.2029 2286.446,298.0729" fill="none" id="D3-to-D6" style="stroke:#000000;stroke-width:1;"/><polygon fill="#000000" points="2291.43,297.6728,2282.1387,294.4059,2286.446,298.0729,2282.779,302.3802,2291.43,297.6728" style="stroke:#000000;stroke-width:1;stroke-linejoin:miter;stroke-miterlimit:10;"/><text fill="#000000" font-family="sans-serif" font-size="13" lengthAdjust="spacing" textLength="208" x="2001.37" y="286.1597">F17  Seed module configuration</text><text fill="#000000" font-family="sans-serif" font-size="13" lengthAdjust="spacing" textLength="113.6548" x="2048.5426" y="301.2925">baked into image</text></g><!--link D1 to D3--><g class="link" data-entity-1="ent0009" data-entity-2="ent0015" data-link-type="dependency" data-source-line="71" id="lnk36"><path d="M1291.18,529.0228 C1381.09,498.0428 1527.68,447.0028 1653.37,400.8628 C1680.16,391.0328 1704.5007,381.8411 1730.9507,371.7111" fill="none" id="D1-to-D3" style="stroke:#000000;stroke-width:1;"/><polygon fill="#000000" points="1735.62,369.9228,1725.7847,369.4063,1730.9507,371.7111,1728.6459,376.8771,1735.62,369.9228" style="stroke:#000000;stroke-width:1;stroke-linejoin:miter;stroke-miterlimit:10;"/><text fill="#000000" font-family="sans-serif" font-size="13" lengthAdjust="spacing" textLength="222.3647" x="1391.37" y="381.9297">F18  Reviewed repository updates</text><text fill="#000000" font-family="sans-serif" font-size="13" lengthAdjust="spacing" textLength="151.3599" x="1426.8724" y="397.0625">via shared host remote</text></g><!--link E5 to P4--><g class="link" data-entity-1="ent0005" data-entity-2="ent0014" data-link-type="dependency" data-source-line="73" id="lnk38"><path d="M2448.46,490.6628 C2545.65,494.8128 2725.33,493.3428 2866.37,439.8628 C2904.49,425.4128 2937.6732,400.6223 2963.5532,377.8923" fill="none" id="E5-to-P4" style="stroke:#000000;stroke-width:1;"/><polygon fill="#000000" points="2967.31,374.5928,2957.9082,377.5265,2963.5532,377.8923,2963.1874,383.5373,2967.31,374.5928" style="stroke:#000000;stroke-width:1;stroke-linejoin:miter;stroke-miterlimit:10;"/><text fill="#000000" font-family="sans-serif" font-size="13" lengthAdjust="spacing" textLength="213.4019" x="2598.882" y="420.9297">F20  Runtime package download</text><text fill="#000000" font-family="sans-serif" font-size="13" lengthAdjust="spacing" textLength="219.4258" x="2595.87" y="436.0625">for example npx package @latest</text></g><!--link P4 to D4--><g class="link" data-entity-1="ent0014" data-entity-2="ent0016" data-link-type="dependency" data-source-line="74" id="lnk39"><path d="M3112.22,323.8828 C3205.48,309.8228 3344.37,288.5828 3465.17,268.8628 C3474.77,267.2928 3479.7894,266.4728 3489.7694,264.7928" fill="none" id="P4-to-D4" style="stroke:#000000;stroke-width:1;"/><polygon fill="#000000" points="3494.7,263.9628,3485.1609,261.5123,3489.7694,264.7928,3486.4889,269.4013,3494.7,263.9628" style="stroke:#000000;stroke-width:1;stroke-linejoin:miter;stroke-miterlimit:10;"/><text fill="#000000" font-family="sans-serif" font-size="13" lengthAdjust="spacing" textLength="321.1343" x="3143.17" y="264.9297">F21  Executed runtime dependencies and caches</text></g><g class="caption" data-source-line="2"><text fill="#000000" font-family="sans-serif" font-size="14" lengthAdjust="spacing" textLength="583.9189" x="1583.3855" y="760.8379">DFD3 level 1 diagram. Seed, first-boot, update, and publication paths are included.</text></g><?plantuml-src fLRRRjj647tdLmpor0AINL6NfaKGL8wKs42S2fQR9m75aXo9MortsRteWgB_tjbTagASf2ZG1niskUVip9apmx7S2eJv0woPB39rWY4yL6o7GF_2MctjaMc4jQjhSOPt9UCI5kyNISvgorNuUmm23oXW10LdEysg6rWZ5WFOSctiC5FA3i3L1RCu2AoromJFMS3Np9O6_1LSvi8LMDmaYS2j1Qj0yrrfYLLZxWydPizbpUW6g9HKUQbLXM2rmzwRZENxdLPE5k-KK1gE9RVzzwPaXJfokOCj4wR_fi0jSy8-uydE1T_92gM5d7wXxfsQQwsEaJeJT5TIyWB1q25Kzbpt2NtOJEv8thyIWBkl1aRFbIvGznd_xWV5BCkO-JyKNHXltjHQvMZCsxU1xYaoQOaQqkctCAHlg2ATPVhSGEEDQtkcv0fcIYo-4fxLJ1hY8mc9FBd8yMevsiYLLd_G4wZ8KfP-KBy2Pc0vkZgORkG7RkzTHY7Lod2hz3cOQ1uiOI8clSACMyomL5IO0hIJH6ysyhVCIUlWz7hs-sm2jp1_UfnD8iNuYcAoaP_u2J8kAMV8MLwYyTTkfAkDrUYDf9pE4VmLJHIJAuhfHihQAxdZX3X7j6aRwe2oKBe1Jg-0iuriUz6PLfNPbNxFToE0nqwu44GuvrzyesGz-6eK5A971ux70HXoEtN4O2ExzZIbRn6hb8WnhZnlPn-YwupvQa5iznH0lqAvK183S36wFdmfQAwn86jmQiD6d1W6xF4SeUaBsppVfT3DgS-FJSRfVyauZGN50nEEKOZ1GvdZecWKNgKl4koZoL7lks46af-K6MeCy0WU_mkOlFH4jkCqgshg43zR1NEIBEKj-PsiJo4OBerbGf1TW-hVH-B9jsMde3u_VY7wHcu5s-CD1Hbeutz2vVkewVYQf36w8G9y4OOvK_DK4JMvHf6txoXv2t_cwfW2znyCgXzDVI1fQyqFDEnXwuI8xoB9z9g4VBwiCYmAVvU7Xb0tyXPjVXiqZh2PTy6I_3SSllK-_1dUa_kVWdU_-9xagghecRdLQ6YOcsJL01S1wFqJ-pOlgJwngOF_wNwFvGHPf72vQWmmTxRqHcskQ17UgXNbgSd1tJNBr8CcT4taz6tMy0PWhrnU2chrzRtNxFxvURMcDEFLox5dcGAikFGiHwNtMw4etJZr1ktq8HFbU-Liqxh1aQ64siMJoNBIOvm1V2Gd4AClEWrxPpikqtB4cMTSPYotpf96moOy8hda-2F0ErNLfBCXFiPqNiucjt6qHYyCULmajELR2jnqsSqy_ZLb5oTDK_yNnu4-qr8eHeEX5MSMwn9I-GcWrv8rCuP4AeB6EUMj1CRyaaKVDVe1e3DTy5ii9mfgsCxpO9dUeMsrQw1akXMDkM7mQjF9iQW5rZJEKUOSJHljAcgrc0Gi-UwXQwmFdtvzN0xWOR6S3_pc5VgzKR_mgvIgm-w1yi2r2dj8aYmYtofeFnftXOmbfzs5InwMf3ReU92S-BLInwml9MwYXYEt9NoQFq7fF-g6DWpqSu6MFt9_9Z1PnH8kfe6T7Fe1wGF4l7PH-iuHOJHqvwCCvB-x42zPrWSKC9Vv4vR1DjD5SCc8REQtIThu2aSrfTfk-Sxfq8eRcJ6l0Nq7LHmqfDCeecFDNhU30gzQBswZbFM1CxyHqfSeV4FfJANi9Sj8GbPRdhm2rCkNSTgI9Cjf53oac9B1NaxxYv6trEbuObLDcVYvtvxuHNWccwmcFRNIaRyNSzUiC86pRxMeUDXDady0?></g></svg>
