<svg xmlns="http://www.w3.org/2000/svg" xmlns:xlink="http://www.w3.org/1999/xlink" contentStyleType="text/css" data-diagram-type="DESCRIPTION" height="968px" preserveAspectRatio="none" style="width:1379px;height:968px;background:#FFFFFF;" version="1.1" viewBox="0 0 1379 968" width="1379px" zoomAndPan="magnify"><?plantuml 1.2026.6?><defs/><g><g class="title" data-source-line="1"><text fill="#000000" font-family="sans-serif" font-size="14" font-weight="700" lengthAdjust="spacing" textLength="267.3057" x="552.5872" y="22.9951">AI Sandbox - System Context DFD</text></g><!--cluster TB1--><g class="cluster" data-qualified-name="TB1" data-source-line="23" id="ent0002"><rect fill="none" height="371" rx="2.5" ry="2.5" style="stroke:#000000;stroke-width:1;stroke-dasharray:7,7;" width="1325.77" x="7" y="140.7528"/><text fill="#000000" font-family="sans-serif" font-size="14" font-weight="700" lengthAdjust="spacing" textLength="147.5059" x="596.1321" y="155.7479">TB1  Host machine</text></g><!--cluster TB2--><g class="cluster" data-qualified-name="TB1.TB2" data-source-line="31" id="ent0008"><rect fill="none" height="129" rx="2.5" ry="2.5" style="stroke:#000000;stroke-width:1;stroke-dasharray:7,7;" width="780.29" x="527.44" y="269.7528"/><text fill="#000000" font-family="sans-serif" font-size="14" font-weight="700" lengthAdjust="spacing" textLength="210.8613" x="812.1543" y="284.7479">TB2  AI Sandbox NixOS VM</text></g><!--cluster TB3--><g class="cluster" data-qualified-name="TB3" data-source-line="37" id="ent0011"><rect fill="none" height="399" rx="2.5" ry="2.5" style="stroke:#000000;stroke-width:1;stroke-dasharray:7,7;" width="270" x="1095.48" y="535.7528"/><text fill="#000000" font-family="sans-serif" font-size="14" font-weight="700" lengthAdjust="spacing" textLength="254.5498" x="1103.2051" y="550.7479">TB3  External / Internet services</text></g><!--entity P2--><g class="entity" data-qualified-name="TB1.P2" data-source-line="24" id="ent0003"><rect fill="#FFFFFF" height="68.8906" rx="12.5" ry="12.5" style="stroke:#000000;stroke-width:0.5;" width="191.5547" x="544.18" y="425.3028"/><text fill="#000000" font-family="sans-serif" font-size="14" lengthAdjust="spacing" textLength="17.3496" x="631.2825" y="448.2979">P2</text><text fill="#000000" font-family="sans-serif" font-size="14" lengthAdjust="spacing" textLength="171.5547" x="554.18" y="464.5948">Host Git review, signing,</text><text fill="#000000" font-family="sans-serif" font-size="14" lengthAdjust="spacing" textLength="141.2852" x="569.3148" y="480.8917">and publishing tools</text></g><!--entity D1--><g class="entity" data-qualified-name="TB1.D1" data-source-line="25" id="ent0004"><path d="M1157.09,427.8028 C1157.09,417.8028 1229.9772,417.8028 1229.9772,417.8028 C1229.9772,417.8028 1302.8644,417.8028 1302.8644,427.8028 L1302.8644,485.6934 C1302.8644,495.6934 1229.9772,495.6934 1229.9772,495.6934 C1229.9772,495.6934 1157.09,495.6934 1157.09,485.6934 L1157.09,427.8028" fill="#FFFFFF" style="stroke:#000000;stroke-width:0.5;"/><path d="M1157.09,427.8028 C1157.09,437.8028 1229.9772,437.8028 1229.9772,437.8028 C1229.9772,437.8028 1302.8644,437.8028 1302.8644,427.8028" fill="none" style="stroke:#000000;stroke-width:0.5;"/><text fill="#000000" font-family="sans-serif" font-size="14" lengthAdjust="spacing" textLength="19.6875" x="1220.1335" y="454.7979">D1</text><text fill="#000000" font-family="sans-serif" font-size="14" lengthAdjust="spacing" textLength="116.9834" x="1171.4855" y="471.0948">Shared directory</text><text fill="#000000" font-family="sans-serif" font-size="14" lengthAdjust="spacing" textLength="125.7744" x="1167.09" y="487.3917">/ai-sandbox-share</text></g><!--entity D3--><g class="entity" data-qualified-name="TB1.D3" data-source-line="26" id="ent0005"><path d="M23,427.8028 C23,417.8028 99.5239,417.8028 99.5239,417.8028 C99.5239,417.8028 176.0479,417.8028 176.0479,427.8028 L176.0479,485.6934 C176.0479,495.6934 99.5239,495.6934 99.5239,495.6934 C99.5239,495.6934 23,495.6934 23,485.6934 L23,427.8028" fill="#FFFFFF" style="stroke:#000000;stroke-width:0.5;"/><path d="M23,427.8028 C23,437.8028 99.5239,437.8028 99.5239,437.8028 C99.5239,437.8028 176.0479,437.8028 176.0479,427.8028" fill="none" style="stroke:#000000;stroke-width:0.5;"/><text fill="#000000" font-family="sans-serif" font-size="14" lengthAdjust="spacing" textLength="19.6875" x="89.6802" y="454.7979">D3</text><text fill="#000000" font-family="sans-serif" font-size="14" lengthAdjust="spacing" textLength="133.0479" x="33" y="471.0948">Git credentials and</text><text fill="#000000" font-family="sans-serif" font-size="14" lengthAdjust="spacing" textLength="87.3428" x="55.8525" y="487.3917">signing keys</text></g><!--entity P3--><g class="entity" data-qualified-name="TB1.P3" data-source-line="28" id="ent0006"><rect fill="#FFFFFF" height="68.8906" rx="12.5" ry="12.5" style="stroke:#000000;stroke-width:0.5;" width="173.5898" x="1143.18" y="180.3028"/><text fill="#000000" font-family="sans-serif" font-size="14" lengthAdjust="spacing" textLength="17.3496" x="1221.3001" y="203.2979">P3</text><text fill="#000000" font-family="sans-serif" font-size="14" lengthAdjust="spacing" textLength="153.5898" x="1153.18" y="219.5948">Host llama.cpp server</text><text fill="#000000" font-family="sans-serif" font-size="14" lengthAdjust="spacing" textLength="67.6621" x="1196.1439" y="235.8917">(optional)</text></g><!--entity D4--><g class="entity" data-qualified-name="TB1.D4" data-source-line="29" id="ent0007"><path d="M571.14,185.8028 C571.14,175.8028 639.9598,175.8028 639.9598,175.8028 C639.9598,175.8028 708.7796,175.8028 708.7796,185.8028 L708.7796,243.6934 C708.7796,253.6934 639.9598,253.6934 639.9598,253.6934 C639.9598,253.6934 571.14,253.6934 571.14,243.6934 L571.14,185.8028" fill="#FFFFFF" style="stroke:#000000;stroke-width:0.5;"/><path d="M571.14,185.8028 C571.14,195.8028 639.9598,195.8028 639.9598,195.8028 C639.9598,195.8028 708.7796,195.8028 708.7796,185.8028" fill="none" style="stroke:#000000;stroke-width:0.5;"/><text fill="#000000" font-family="sans-serif" font-size="14" lengthAdjust="spacing" textLength="19.6875" x="630.1161" y="212.7979">D4</text><text fill="#000000" font-family="sans-serif" font-size="14" lengthAdjust="spacing" textLength="117.6396" x="581.14" y="229.0948">Local model files</text><text fill="#000000" font-family="sans-serif" font-size="14" lengthAdjust="spacing" textLength="67.6621" x="606.1288" y="245.3917">(optional)</text></g><!--entity P1--><g class="entity" data-qualified-name="TB1.TB2.P1" data-source-line="32" id="ent0009"><rect fill="#FFFFFF" height="52.5938" rx="12.5" ry="12.5" style="stroke:#000000;stroke-width:0.5;" width="193.0381" x="543.44" y="330.4528"/><text fill="#000000" font-family="sans-serif" font-size="14" lengthAdjust="spacing" textLength="17.3496" x="631.2842" y="353.4479">P1</text><text fill="#000000" font-family="sans-serif" font-size="14" lengthAdjust="spacing" textLength="173.0381" x="553.44" y="369.7448">AI Sandbox environment</text></g><!--entity D2--><g class="entity" data-qualified-name="TB1.TB2.D2" data-source-line="33" id="ent0010"><path d="M1168.23,314.8028 C1168.23,304.8028 1229.978,304.8028 1229.978,304.8028 C1229.978,304.8028 1291.7261,304.8028 1291.7261,314.8028 L1291.7261,372.6934 C1291.7261,382.6934 1229.978,382.6934 1229.978,382.6934 C1229.978,382.6934 1168.23,382.6934 1168.23,372.6934 L1168.23,314.8028" fill="#FFFFFF" style="stroke:#000000;stroke-width:0.5;"/><path d="M1168.23,314.8028 C1168.23,324.8028 1229.978,324.8028 1229.978,324.8028 C1229.978,324.8028 1291.7261,324.8028 1291.7261,314.8028" fill="none" style="stroke:#000000;stroke-width:0.5;"/><text fill="#000000" font-family="sans-serif" font-size="14" lengthAdjust="spacing" textLength="19.6875" x="1220.1343" y="341.7979">D2</text><text fill="#000000" font-family="sans-serif" font-size="14" lengthAdjust="spacing" textLength="103.4961" x="1178.23" y="358.0948">VM virtual disk</text><text fill="#000000" font-family="sans-serif" font-size="14" lengthAdjust="spacing" textLength="45.5068" x="1207.2246" y="374.3917">qcow2</text></g><!--entity E2--><g class="entity" data-qualified-name="TB3.E2" data-source-line="38" id="ent0012"><rect fill="#FFFFFF" height="52.5938" rx="2.5" ry="2.5" style="stroke:#000000;stroke-width:0.5;" width="68.5146" x="1195.72" y="762.4528"/><text fill="#000000" font-family="sans-serif" font-size="14" lengthAdjust="spacing" textLength="17.7529" x="1221.1009" y="785.4479">E2</text><text fill="#000000" font-family="sans-serif" font-size="14" lengthAdjust="spacing" textLength="48.5146" x="1205.72" y="801.7448">GitHub</text></g><!--entity E3--><g class="entity" data-qualified-name="TB3.E3" data-source-line="39" id="ent0013"><rect fill="#FFFFFF" height="52.5938" rx="2.5" ry="2.5" style="stroke:#000000;stroke-width:0.5;" width="197.249" x="1131.35" y="570.4528"/><text fill="#000000" font-family="sans-serif" font-size="14" lengthAdjust="spacing" textLength="17.7529" x="1221.098" y="593.4479">E3</text><text fill="#000000" font-family="sans-serif" font-size="14" lengthAdjust="spacing" textLength="177.249" x="1141.35" y="609.7448">Cloud AI / model services</text></g><!--entity E4--><g class="entity" data-qualified-name="TB3.E4" data-source-line="40" id="ent0014"><rect fill="#FFFFFF" height="68.8906" rx="2.5" ry="2.5" style="stroke:#000000;stroke-width:0.5;" width="235.4004" x="1112.28" y="850.3028"/><text fill="#000000" font-family="sans-serif" font-size="14" lengthAdjust="spacing" textLength="17.7529" x="1221.1037" y="873.2979">E4</text><text fill="#000000" font-family="sans-serif" font-size="14" lengthAdjust="spacing" textLength="215.4004" x="1122.28" y="889.5948">Software and package sources</text><text fill="#000000" font-family="sans-serif" font-size="14" lengthAdjust="spacing" textLength="192.2471" x="1133.8567" y="905.8917">(Nix caches, npm, vendors)</text></g><!--entity E5--><g class="entity" data-qualified-name="TB3.E5" data-source-line="41" id="ent0015"><rect fill="#FFFFFF" height="68.8906" rx="2.5" ry="2.5" style="stroke:#000000;stroke-width:0.5;" width="174.6699" x="1142.64" y="658.3028"/><text fill="#000000" font-family="sans-serif" font-size="14" lengthAdjust="spacing" textLength="17.7529" x="1221.0985" y="681.2979">E5</text><text fill="#000000" font-family="sans-serif" font-size="14" lengthAdjust="spacing" textLength="154.6699" x="1152.64" y="697.5948">Websites accessed by</text><text fill="#000000" font-family="sans-serif" font-size="14" lengthAdjust="spacing" textLength="138.7969" x="1160.5765" y="713.8917">browsers or AI tools</text></g><!--entity E1--><g class="entity" data-qualified-name="E1" data-source-line="20" id="ent0001"><rect fill="#FFFFFF" height="52.5938" rx="2.5" ry="2.5" style="stroke:#000000;stroke-width:0.5;" width="165.8311" x="16.61" y="72.4528"/><text fill="#000000" font-family="sans-serif" font-size="14" lengthAdjust="spacing" textLength="17.7529" x="90.6491" y="95.4479">E1</text><text fill="#000000" font-family="sans-serif" font-size="14" lengthAdjust="spacing" textLength="145.8311" x="26.61" y="111.7448">Developer / operator</text></g><!--link E1 to P1--><g class="link" data-entity-1="ent0001" data-entity-2="ent0009" data-link-type="dependency" data-source-line="54" id="lnk16"><path d="M143.1831,128.2845 C157.2431,138.5145 168.95,147.7028 182.44,159.7528 C196.98,172.7328 195.34,182.3828 212.44,191.7528 C331,256.7328 419.95,148.2128 511.44,247.7528 C523.38,260.7428 507.9,313.4028 519.44,326.7528 C526.02,334.3628 529.7269,337.9687 538.7169,342.4087" fill="none" id="E1-P1" style="stroke:#000000;stroke-width:1;"/><polygon fill="#000000" points="139.14,125.3428,144.0641,133.8723,143.1831,128.2845,148.7709,127.4034,139.14,125.3428" style="stroke:#000000;stroke-width:1;stroke-linejoin:miter;stroke-miterlimit:10;"/><polygon fill="#000000" points="543.2,344.6228,536.9018,337.051,538.7169,342.4087,533.3592,344.2239,543.2,344.6228" style="stroke:#000000;stroke-width:1;stroke-linejoin:miter;stroke-miterlimit:10;"/><text fill="#000000" font-family="sans-serif" font-size="13" lengthAdjust="spacing" textLength="297.4702" x="213.44" y="172.8197">F1  Keyboard/mouse input and display output</text><text fill="#000000" font-family="sans-serif" font-size="13" lengthAdjust="spacing" textLength="52.0762" x="336.137" y="187.9525">via UTM</text></g><!--link E1 to P1--><g class="link" data-entity-1="ent0001" data-entity-2="ent0009" data-link-type="dependency" data-source-line="55" id="lnk17"><path d="M187.5831,82.1397 C281.9931,69.1197 429.5,65.9928 511.44,155.7528 C524.26,169.8028 507.39,312.0328 519.44,326.7528 C525.88,334.6128 529.5718,338.3488 538.5918,342.8788" fill="none" id="E1-P1-1" style="stroke:#000000;stroke-width:1;"/><polygon fill="#000000" points="182.63,82.8228,192.0921,85.5557,187.5831,82.1397,190.9992,77.6308,182.63,82.8228" style="stroke:#000000;stroke-width:1;stroke-linejoin:miter;stroke-miterlimit:10;"/><polygon fill="#000000" points="543.06,345.1228,536.8125,337.5091,538.5918,342.8788,533.2221,344.6581,543.06,345.1228" style="stroke:#000000;stroke-width:1;stroke-linejoin:miter;stroke-miterlimit:10;"/><text fill="#000000" font-family="sans-serif" font-size="13" lengthAdjust="spacing" textLength="116.3525" x="303.94" y="56.9297">F2  Clipboard text</text><text fill="#000000" font-family="sans-serif" font-size="13" lengthAdjust="spacing" textLength="60.6201" x="331.8062" y="72.0625">via SPICE</text></g><!--link P1 to D1--><g class="link" data-entity-1="ent0009" data-entity-2="ent0004" data-link-type="dependency" data-source-line="57" id="lnk18"><path d="M730.0678,384.8301 C743.7578,388.6301 753.04,390.8728 766.48,393.7528 C839.28,409.3428 1040.8853,434.4195 1151.6853,447.6595" fill="none" id="P1-D1" style="stroke:#000000;stroke-width:1;"/><polygon fill="#000000" points="725.25,383.4928,732.8523,389.7542,730.0678,384.8301,734.992,382.0457,725.25,383.4928" style="stroke:#000000;stroke-width:1;stroke-linejoin:miter;stroke-miterlimit:10;"/><polygon fill="#000000" points="1156.65,448.2528,1148.1882,443.2132,1151.6853,447.6595,1147.239,451.1567,1156.65,448.2528" style="stroke:#000000;stroke-width:1;stroke-linejoin:miter;stroke-miterlimit:10;"/><text fill="#000000" font-family="sans-serif" font-size="13" lengthAdjust="spacing" textLength="207.2002" x="819.48" y="374.8197">F3  Shared-file reads and writes</text><text fill="#000000" font-family="sans-serif" font-size="13" lengthAdjust="spacing" textLength="59.5791" x="893.2905" y="389.9525">9p/VirtFS</text></g><!--link P1 to D2--><g class="link" data-entity-1="ent0009" data-entity-2="ent0010" data-link-type="dependency" data-source-line="58" id="lnk19"><path d="M741.7388,354.5225 C863.6188,351.8325 1060.5512,347.4732 1162.9112,345.2132" fill="none" id="P1-D2" style="stroke:#000000;stroke-width:1;"/><polygon fill="#000000" points="736.74,354.6328,745.8261,358.4332,741.7388,354.5225,745.6495,350.4352,736.74,354.6328" style="stroke:#000000;stroke-width:1;stroke-linejoin:miter;stroke-miterlimit:10;"/><polygon fill="#000000" points="1167.91,345.1028,1158.8239,341.3024,1162.9112,345.2132,1159.0005,349.3005,1167.91,345.1028" style="stroke:#000000;stroke-width:1;stroke-linejoin:miter;stroke-miterlimit:10;"/><text fill="#000000" font-family="sans-serif" font-size="13" lengthAdjust="spacing" textLength="194.3906" x="825.98" y="343.3097">F4  VM-state reads and writes</text></g><!--link P1 to E3--><g class="link" data-entity-1="ent0009" data-entity-2="ent0013" data-link-type="dependency" data-source-line="60" id="lnk20"><path d="M736.8292,386.8535 C784.0792,439.9035 713.73,496.1628 766.48,543.7528 C792.4,567.1328 1044.86,566.2628 1079.48,570.7528 C1096.2,572.9228 1108.9676,574.8131 1126.1176,577.6631" fill="none" id="P1-E3" style="stroke:#000000;stroke-width:1;"/><polygon fill="#000000" points="733.23,383.3828,736.9321,392.5094,736.8292,386.8535,742.4851,386.7506,733.23,383.3828" style="stroke:#000000;stroke-width:1;stroke-linejoin:miter;stroke-miterlimit:10;"/><polygon fill="#000000" points="1131.05,578.4828,1122.8275,573.0615,1126.1176,577.6631,1121.516,580.9533,1131.05,578.4828" style="stroke:#000000;stroke-width:1;stroke-linejoin:miter;stroke-miterlimit:10;"/><text fill="#000000" font-family="sans-serif" font-size="13" lengthAdjust="spacing" textLength="219.8638" x="813.48" y="524.8197">F5  Prompts, context, credentials,</text><text fill="#000000" font-family="sans-serif" font-size="13" lengthAdjust="spacing" textLength="194.0098" x="826.407" y="539.9525">and model responses - HTTPS</text></g><!--link P1 to E5--><g class="link" data-entity-1="ent0009" data-entity-2="ent0015" data-link-type="dependency" data-source-line="61" id="lnk21"><path d="M736.8555,386.8383 C801.5455,463.6783 694.35,540.8428 766.48,610.7528 C816.68,659.4128 1011.13,628.0228 1079.48,642.7528 C1100.21,647.2228 1117.3367,652.0217 1137.7767,658.6917" fill="none" id="P1-E5" style="stroke:#000000;stroke-width:1;"/><polygon fill="#000000" points="733.32,383.3028,736.8555,392.4952,736.8555,386.8383,742.5124,386.8383,733.32,383.3028" style="stroke:#000000;stroke-width:1;stroke-linejoin:miter;stroke-miterlimit:10;"/><polygon fill="#000000" points="1142.53,660.2428,1135.2149,653.6481,1137.7767,658.6917,1132.7331,661.2535,1142.53,660.2428" style="stroke:#000000;stroke-width:1;stroke-linejoin:miter;stroke-miterlimit:10;"/><text fill="#000000" font-family="sans-serif" font-size="13" lengthAdjust="spacing" textLength="259.7651" x="793.48" y="591.8197">F6  Browser/tool requests, web content,</text><text fill="#000000" font-family="sans-serif" font-size="13" lengthAdjust="spacing" textLength="163.0713" x="841.8269" y="606.9525">and downloads - HTTP(S)</text></g><!--link E4 to P1--><g class="link" data-entity-1="ent0014" data-entity-2="ent0009" data-link-type="dependency" data-source-line="62" id="lnk22"><path d="M1112.08,853.9728 C1102.86,848.0928 1094.44,841.0928 1087.48,832.7528 C1074.18,816.8228 1094.66,800.9028 1079.48,786.7528 C1028.33,739.0828 815.41,804.6928 766.48,754.7528 C709.06,696.1428 787.68,450.8628 736.48,386.7528 C735.5,385.5328 737.9339,387.9681 736.8639,386.8481" fill="none" id="E4-to-P1" style="stroke:#000000;stroke-width:1;"/><polygon fill="#000000" points="733.41,383.2328,736.7348,392.5035,736.8639,386.8481,742.5193,386.9772,733.41,383.2328" style="stroke:#000000;stroke-width:1;stroke-linejoin:miter;stroke-miterlimit:10;"/><text fill="#000000" font-family="sans-serif" font-size="13" lengthAdjust="spacing" textLength="184.9897" x="830.98" y="735.8197">F7  Software, dependencies,</text><text fill="#000000" font-family="sans-serif" font-size="13" lengthAdjust="spacing" textLength="135.8716" x="855.5391" y="750.9525">and updates - HTTPS</text></g><!--link E2 to P1--><g class="link" data-entity-1="ent0012" data-entity-2="ent0009" data-link-type="dependency" data-source-line="63" id="lnk23"><path d="M1195.32,787.2728 C1163.23,784.0228 1115.72,774.1728 1087.48,744.7528 C1077.92,734.8028 1089.98,723.7028 1079.48,714.7528 C1026.27,669.3928 815.9,732.2128 766.48,682.7528 C719.75,635.9828 778.24,438.0028 736.48,386.7528 C735.49,385.5428 737.9207,387.972 736.8407,386.852" fill="none" id="E2-to-P1" style="stroke:#000000;stroke-width:1;"/><polygon fill="#000000" points="733.37,383.2528,736.7378,392.5079,736.8407,386.852,742.4966,386.9548,733.37,383.2528" style="stroke:#000000;stroke-width:1;stroke-linejoin:miter;stroke-miterlimit:10;"/><text fill="#000000" font-family="sans-serif" font-size="13" lengthAdjust="spacing" textLength="242.4614" x="801.98" y="663.8197">F8  Public source and repository data</text><text fill="#000000" font-family="sans-serif" font-size="13" lengthAdjust="spacing" textLength="146.2944" x="850.0635" y="678.9525">HTTPS or Git transport</text></g><!--link P1 to P3--><g class="link" data-entity-1="ent0009" data-entity-2="ent0006" data-link-type="dependency" data-source-line="65" id="lnk24"><path d="M739.1804,328.7414 C749.9904,325.8514 756.04,324.3228 766.48,321.7528 C904.61,287.7428 941.16,288.0328 1079.48,254.7528 C1100.11,249.7828 1117.4181,245.3582 1138.1681,239.8382" fill="none" id="P1-P3" style="stroke:#000000;stroke-width:1;"/><polygon fill="#000000" points="734.35,330.0328,744.0777,331.5726,739.1804,328.7414,742.0115,323.844,734.35,330.0328" style="stroke:#000000;stroke-width:1;stroke-linejoin:miter;stroke-miterlimit:10;"/><polygon fill="#000000" points="1143,238.5528,1133.2742,237.001,1138.1681,239.8382,1135.3308,244.7321,1143,238.5528" style="stroke:#000000;stroke-width:1;stroke-linejoin:miter;stroke-miterlimit:10;"/><text fill="#000000" font-family="sans-serif" font-size="13" lengthAdjust="spacing" textLength="311.7842" x="767.48" y="235.8197">F9  Inference requests and responses (optional)</text><text fill="#000000" font-family="sans-serif" font-size="13" lengthAdjust="spacing" textLength="241.2681" x="802.7381" y="250.9525">OpenAI-compatible HTTP over vmnet</text></g><!--link D4 to P3--><g class="link" data-entity-1="ent0007" data-entity-2="ent0006" data-link-type="dependency" data-source-line="66" id="lnk25"><path d="M709.27,214.7528 C816.86,214.7528 1020.6,214.7528 1138.15,214.7528" fill="none" id="D4-to-P3" style="stroke:#000000;stroke-width:1;"/><polygon fill="#000000" points="1143.15,214.7528,1134.15,210.7528,1138.15,214.7528,1134.15,218.7528,1143.15,214.7528" style="stroke:#000000;stroke-width:1;stroke-linejoin:miter;stroke-miterlimit:10;"/><text fill="#000000" font-family="sans-serif" font-size="13" lengthAdjust="spacing" textLength="199.9512" x="823.48" y="210.8197">F10  Model and projection files</text></g><!--link P2 to D1--><g class="link" data-entity-1="ent0003" data-entity-2="ent0004" data-link-type="dependency" data-source-line="68" id="lnk26"><path d="M741.2191,462.3658 C751.4291,462.5558 756.67,462.6328 766.48,462.7528 C905.58,464.4128 940.39,465.5428 1079.48,462.7528 C1104.67,462.2428 1127.2344,461.4726 1151.7644,460.4426" fill="none" id="P2-D1" style="stroke:#000000;stroke-width:1;"/><polygon fill="#000000" points="736.22,462.2728,745.144,466.4396,741.2191,462.3658,745.2929,458.4409,736.22,462.2728" style="stroke:#000000;stroke-width:1;stroke-linejoin:miter;stroke-miterlimit:10;"/><polygon fill="#000000" points="1156.76,460.2328,1147.6001,456.6139,1151.7644,460.4426,1147.9357,464.6068,1156.76,460.2328" style="stroke:#000000;stroke-width:1;stroke-linejoin:miter;stroke-miterlimit:10;"/><text fill="#000000" font-family="sans-serif" font-size="13" lengthAdjust="spacing" textLength="283.5625" x="781.48" y="458.8197">F11  Fetches, VM commits, and shared files</text></g><!--link P2 to E2--><g class="link" data-entity-1="ent0003" data-entity-2="ent0012" data-link-type="dependency" data-source-line="69" id="lnk27"><path d="M640.9066,499.5614 C642.6566,574.5614 658.53,745.8628 766.48,822.7528 C879.78,903.4628 941.24,838.2728 1079.48,822.7528 C1119.95,818.2128 1160.6212,808.2865 1190.6812,799.9665" fill="none" id="P2-E2" style="stroke:#000000;stroke-width:1;"/><polygon fill="#000000" points="640.79,494.5628,637.001,503.6537,640.9066,499.5614,644.9989,503.467,640.79,494.5628" style="stroke:#000000;stroke-width:1;stroke-linejoin:miter;stroke-miterlimit:10;"/><polygon fill="#000000" points="1195.5,798.6328,1185.7591,797.1785,1190.6812,799.9665,1187.8931,804.8886,1195.5,798.6328" style="stroke:#000000;stroke-width:1;stroke-linejoin:miter;stroke-miterlimit:10;"/><text fill="#000000" font-family="sans-serif" font-size="13" lengthAdjust="spacing" textLength="269.0898" x="788.48" y="803.8197">F12  Signed commits and repository data</text><text fill="#000000" font-family="sans-serif" font-size="13" lengthAdjust="spacing" textLength="89.5908" x="878.2295" y="818.9525">SSH or HTTPS</text></g><!--link D3 to P2--><g class="link" data-entity-1="ent0005" data-entity-2="ent0003" data-link-type="dependency" data-source-line="70" id="lnk28"><path d="M176.53,457.1728 C272.91,457.7128 434.1401,458.6151 538.8401,459.1951" fill="none" id="D3-to-P2" style="stroke:#000000;stroke-width:1;"/><polygon fill="#000000" points="543.84,459.2228,534.8623,455.173,538.8401,459.1951,534.818,463.1729,543.84,459.2228" style="stroke:#000000;stroke-width:1;stroke-linejoin:miter;stroke-miterlimit:10;"/><text fill="#000000" font-family="sans-serif" font-size="13" lengthAdjust="spacing" textLength="220.0796" x="251.94" y="453.4697">F13  Credentials and signing keys</text></g><!--link E1 to P2--><g class="link" data-entity-1="ent0001" data-entity-2="ent0003" data-link-type="dependency" data-source-line="71" id="lnk29"><path d="M151.7734,128.2202 C164.7334,137.5802 173.59,146.2628 182.44,159.7528 C214.48,208.6128 174.4,243.3928 212.44,287.7528 C256.88,339.5728 427.4633,397.4678 539.0333,431.1478" fill="none" id="E1-P2" style="stroke:#000000;stroke-width:1;"/><polygon fill="#000000" points="147.72,125.2928,152.6742,133.8049,151.7734,128.2202,157.3581,127.3195,147.72,125.2928" style="stroke:#000000;stroke-width:1;stroke-linejoin:miter;stroke-miterlimit:10;"/><polygon fill="#000000" points="543.82,432.5928,536.36,426.1625,539.0333,431.1478,534.048,433.8212,543.82,432.5928" style="stroke:#000000;stroke-width:1;stroke-linejoin:miter;stroke-miterlimit:10;"/><text fill="#000000" font-family="sans-serif" font-size="13" lengthAdjust="spacing" textLength="235.5361" x="244.44" y="268.8197">F14  Review/publication commands,</text><text fill="#000000" font-family="sans-serif" font-size="13" lengthAdjust="spacing" textLength="156.6919" x="283.8621" y="283.9525">diffs, status, and results</text></g><g class="caption" data-source-line="2"><text fill="#000000" font-family="sans-serif" font-size="14" lengthAdjust="spacing" textLength="522.5049" x="424.9876" y="956.7479">DFD3 context diagram. Optional flows and elements are labeled explicitly.</text></g><?plantuml-src bLR1Sjis4BtpAtPoQJ9ZMPLajqsQyOnjqRMdTQq9tVJ22qX24ceIO03GigQJVdlV0en5ASvCUx4i4llmTlVjMtdbQqddDvG9NHNcYKQKRPsN3LqQxUMJf_dLF2b5wvNH_F-Colv5fSJAYkQOxi9BKTEoDXj7029PoqPgZozMKYqAVCV3fxPM9IxS7YT9BPUUl26hLcl6ih9abCGzADqAu59Zj2dNrZIIlEtau8rRYyfib5xHKjHk-AQIIz7L_Xxypckrqao2IloHTd3gt5gpkJIriLJKedn8rggIXAojD7xR3W6Pbj0hrEZlXEW2XrVMTBgAqPkryfAV6rj9EqJyF2Gbl2Y4-_yGoNUnuiX6MYum4b5UIVUEIs3RKMci1kbgHzCT9plAhz99hkVoKTQcbPR6n1_26_kAXADqydm1wkiy5SnAs81VriO1jn9kZGy8um3v_c92T6qGrOXohRGCaFpq_Vk0DkhHjcTd8Uz1x6AQwn3wY_9u_gZaveWSkeME7kMQzTDsHQtScbliZQbTG5zC0TvQKqhdpiw0-LpOLtCacg4aJ3b8oTXjhlyP2pLoKTWZhbXaEP_inyvopKnAH7E18IdMSAvxIlGWjv70V9OSP3BhCwbhqOZZict9IVieRQvVctugtaJkiszpFydrRwP4UnjJIKoHGXk_0fYV7DnzVp6buU3-hfxkClfuspTY-gr6x2U0kWqmf7vKreIfYQmd1wptUAED7sy94Ru3-KgvXrn_Airc6WbFSVupgtYFz8me_IBdCTtmP6hfGzaKhkdPp_w3ZD9fwDjrLqGvJmzUepUNjUagBjAuh-tUDUdi80ADoCpIRzYqWWenXc85Pp2TBKDFK6Gg8NZfZaYtpH4zIbqPwsAFqfC3mDDS_oaBXmc7f4gk8WyJb5d0WC354QOTz7OQJq_Zt2zYqMLqqE0NUsF-yrSpYvUDKBeVsUENF6pGor3C3z66s4DeUhhdMOEO5_iGxIhpM-GPRtp1sxmLsW4FSefPPQPM5JAoOKyWiU0-BAcuEuxfGZsl0WYaFrcQfe35m0VBDKYn5QLGvcXqnWfzHrVmeb_bjZ32LkF6T50dykXyQ29qsTPYIwRpU9H3uOB-kByzGC0iNTQg3H34woqUp1OtbscIBFgpyt0M4evUC-9HHQb45RVUndAdS_ss7N_4L5nbky0f1vuGvdFalF1VH-qkIMTyzfHO0qtheRH-unuDBQetoYXhArrhDAjbHDVtzulTnUafW_s0taJ5ZLbgEF-fauwXDxA8yDhtYDYikZPCBcAzpjuawGdjIlKZqk-dv0WBjyK4I5r2WJr0rwAX0ohfT13y4z9YRo_xeGeLiB8r619uTj02F9K3UJRObwEAZFMx4Yr2YTuI_6E9_QTB-PnI3_Yb7ZiNpVKTg9xVO6ashV2gGElu7ZBmQtfiu4B9lCypm4--9xeDvGrUOCrVKPVHe45cEXJ511gyaZvQ0smHjpIAAyp1Bgwc6FWbBWsQc41v6HODNlSXBvSaowwv8B6a69h0Co90ZvVxkuk6gskdz7WSAlmGbkuuRDbIXAJuSaHo4okrN88uwxJh4q11yRFA9Vy2?></g></svg>